<?xml version="1.0" standalone="no"?>
<!DOCTYPE svg PUBLIC "-//W3C//DTD SVG 20010904//EN"
 "http://www.w3.org/TR/2001/REC-SVG-20010904/DTD/svg10.dtd">
<svg version="1.0" xmlns="http://www.w3.org/2000/svg"
 width="700.000000pt" height="700.000000pt" viewBox="0 0 700.000000 700.000000"
 preserveAspectRatio="xMidYMid meet">
<metadata>
Created by potrace 1.14, written by Peter Selinger 2001-2017
</metadata>
<g transform="translate(0.000000,700.000000) scale(0.100000,-0.100000)"
fill="#000000" stroke="none">
<path d="M4664 6336 c-5 -13 -9 -14 -20 -5 -8 6 -14 8 -14 3 0 -5 -21 -9 -48
-9 -26 1 -52 -3 -59 -8 -6 -4 -14 -3 -18 3 -5 8 -11 8 -19 0 -7 -5 -32 -11
-54 -12 -23 -1 -39 -4 -37 -8 2 -4 -6 -6 -18 -5 -12 1 -41 -4 -66 -12 -24 -7
-47 -10 -52 -7 -5 3 -9 1 -9 -3 0 -5 -12 -10 -26 -11 -15 -1 -34 -8 -42 -15
-13 -9 -14 -9 -8 1 4 6 2 12 -3 12 -6 0 -11 -4 -11 -9 0 -6 -9 -8 -20 -6 -11
2 -22 -1 -25 -6 -4 -5 -11 -7 -16 -4 -5 4 -9 1 -9 -5 0 -6 -4 -9 -10 -5 -5 3
-17 1 -27 -4 -20 -11 -74 -25 -85 -23 -5 1 -8 -3 -8 -9 0 -8 -5 -8 -15 1 -12
10 -16 9 -21 -3 -3 -9 -12 -13 -20 -10 -8 3 -14 1 -14 -5 0 -6 -8 -9 -17 -7
-10 1 -23 -2 -29 -7 -7 -5 -22 -11 -34 -13 -12 -2 -34 -12 -47 -21 -18 -11
-23 -12 -17 -3 6 10 0 9 -17 -3 -14 -9 -44 -22 -67 -29 -25 -7 -39 -16 -35
-23 4 -6 -2 -4 -12 4 -11 9 -16 10 -11 3 5 -9 -1 -13 -19 -13 -17 0 -24 -4
-19 -12 4 -6 3 -8 -3 -5 -13 8 -76 -17 -67 -26 4 -3 -3 -5 -15 -2 -11 2 -21
-1 -21 -7 0 -6 -3 -9 -6 -6 -3 4 -17 0 -31 -7 -15 -8 -31 -11 -36 -8 -6 3 -7
1 -3 -5 5 -8 0 -12 -13 -12 -11 0 -23 -5 -26 -10 -4 -6 -11 -8 -16 -5 -5 4 -9
2 -9 -4 0 -10 -89 -48 -102 -43 -5 1 -8 -3 -8 -8 0 -10 -48 -35 -62 -32 -5 1
-8 -2 -8 -7 0 -8 -37 -24 -52 -22 -5 1 -8 -4 -8 -9 0 -6 -5 -10 -11 -10 -6 0
-17 -7 -26 -15 -8 -8 -19 -13 -24 -10 -5 4 -9 1 -9 -5 0 -7 -7 -9 -16 -6 -8 3
-12 2 -9 -3 5 -9 -32 -27 -48 -23 -5 1 -6 -1 -3 -6 5 -9 -72 -48 -87 -44 -4 1
-6 -4 -5 -10 2 -7 -3 -12 -9 -10 -7 1 -13 -3 -13 -9 0 -5 -5 -7 -10 -4 -6 3
-13 -1 -16 -9 -3 -9 -10 -13 -15 -10 -5 3 -9 0 -9 -5 0 -6 -6 -11 -13 -11 -7
0 -24 -10 -37 -22 -14 -13 -32 -24 -40 -26 -8 -2 -20 -10 -26 -18 -6 -7 -16
-14 -23 -14 -6 0 -11 -4 -11 -10 0 -5 -7 -10 -15 -10 -8 0 -15 -5 -15 -11 0
-5 -4 -8 -9 -5 -5 3 -12 -1 -15 -10 -3 -8 -10 -13 -14 -10 -5 3 -16 -3 -25
-12 -23 -25 -51 -47 -58 -47 -4 0 -22 -13 -41 -30 -18 -16 -37 -29 -41 -27 -4
1 -10 -5 -13 -13 -4 -8 -13 -15 -21 -15 -8 0 -11 -5 -7 -12 5 -8 2 -9 -10 -5
-10 4 -15 3 -11 -3 3 -6 2 -10 -3 -10 -4 0 -18 -9 -30 -20 -12 -12 -22 -18
-22 -14 0 4 -9 -5 -21 -20 -11 -14 -27 -26 -35 -26 -8 0 -14 -7 -14 -15 0 -8
-3 -14 -8 -13 -6 3 -51 -34 -104 -84 -10 -10 -23 -18 -29 -18 -5 0 -7 -4 -4
-10 3 -5 1 -10 -5 -10 -7 0 -26 -15 -43 -32 -16 -18 -34 -32 -38 -31 -4 2 -11
-6 -14 -17 -4 -11 -13 -20 -20 -20 -8 0 -17 -5 -21 -12 -5 -7 -2 -8 7 -3 8 4
5 -1 -6 -12 -11 -11 -23 -19 -27 -16 -5 2 -8 -3 -8 -12 0 -9 -3 -14 -8 -12 -4
3 -20 -13 -37 -34 -16 -21 -36 -38 -43 -39 -7 0 -10 -4 -7 -10 3 -5 -2 -10
-11 -10 -10 0 -15 -3 -11 -6 7 -8 -36 -53 -45 -47 -5 2 -8 -1 -8 -8 0 -6 -11
-22 -26 -35 -14 -13 -22 -24 -19 -24 3 0 -7 -12 -22 -27 -15 -16 -31 -27 -36
-25 -5 1 -6 -2 -3 -6 3 -5 -3 -17 -14 -27 -11 -10 -17 -22 -14 -26 3 -5 -4 -9
-16 -9 -12 0 -19 -4 -16 -9 8 -13 -55 -82 -68 -74 -6 3 -8 3 -4 -2 10 -11 -53
-96 -65 -88 -6 3 -7 1 -3 -6 8 -13 -18 -44 -28 -33 -4 3 -4 -2 0 -12 5 -13 4
-17 -3 -13 -10 7 -28 -19 -25 -35 1 -5 -5 -8 -14 -8 -8 0 -12 -4 -9 -10 3 -5
1 -10 -6 -10 -7 0 -10 -3 -7 -6 3 -3 -5 -17 -18 -31 -13 -14 -22 -28 -20 -31
3 -2 -6 -14 -20 -27 -13 -12 -24 -26 -25 -31 0 -5 -16 -29 -34 -54 -19 -25
-42 -60 -51 -78 -10 -19 -23 -36 -31 -39 -7 -3 -10 -9 -7 -15 3 -5 -2 -16 -12
-23 -11 -8 -15 -15 -11 -15 4 0 -1 -10 -13 -22 -11 -12 -20 -28 -20 -35 0 -7
-5 -13 -11 -13 -5 0 -7 -4 -4 -10 3 -5 3 -10 -2 -10 -4 0 -14 -13 -21 -30 -7
-16 -24 -45 -38 -65 -13 -20 -19 -33 -12 -30 7 4 6 1 -3 -7 -9 -7 -14 -19 -12
-25 3 -7 0 -13 -6 -13 -5 0 -20 -22 -33 -50 -13 -28 -27 -50 -31 -50 -5 0 -5
-5 -2 -11 4 -5 -1 -20 -12 -31 -12 -15 -13 -19 -3 -14 9 5 8 2 -2 -7 -10 -8
-15 -17 -11 -20 3 -4 1 -7 -6 -7 -7 0 -9 -4 -6 -10 3 -5 1 -10 -6 -10 -7 0
-10 -3 -7 -6 4 -3 0 -17 -7 -31 -8 -15 -12 -30 -9 -35 3 -4 0 -8 -5 -8 -6 0
-10 -3 -9 -7 1 -8 -14 -49 -32 -84 -5 -9 -12 -33 -15 -53 -4 -20 -11 -33 -16
-30 -5 3 -6 -2 -3 -11 4 -8 1 -21 -5 -29 -6 -7 -8 -16 -4 -19 3 -4 2 -7 -3 -7
-6 0 -9 -12 -9 -27 1 -16 -1 -32 -4 -38 -3 -5 -6 -16 -7 -25 -2 -8 -5 -28 -9
-45 -3 -16 -7 -40 -7 -52 -1 -13 -6 -23 -10 -23 -4 0 -8 -5 -8 -11 0 -5 5 -7
10 -4 6 3 10 2 10 -4 0 -5 -4 -12 -9 -15 -5 -4 -8 -14 -6 -24 1 -9 -2 -25 -7
-36 -6 -11 -6 -16 -1 -13 5 4 10 0 10 -8 0 -8 -4 -12 -8 -10 -10 7 -5 -97 6
-114 5 -9 4 -12 -3 -7 -7 4 -10 -1 -9 -14 1 -11 4 -20 8 -20 4 0 6 -18 4 -40
-3 -29 -1 -39 7 -34 7 4 8 3 4 -5 -4 -6 -2 -18 4 -26 9 -10 9 -15 1 -15 -7 0
-8 -8 -1 -24 5 -13 6 -27 3 -30 -4 -3 0 -6 8 -6 11 0 11 -2 -1 -10 -11 -7 -11
-10 -2 -10 7 0 11 -4 7 -9 -3 -5 -1 -12 5 -16 6 -4 8 -10 5 -15 -3 -5 0 -21 7
-37 6 -15 12 -30 13 -33 1 -3 9 -23 18 -44 10 -22 20 -50 23 -63 4 -13 10 -23
15 -23 5 0 9 -7 9 -15 0 -8 5 -15 10 -15 6 0 10 -7 10 -16 0 -16 38 -76 52
-82 4 -2 8 -10 8 -18 0 -8 4 -14 9 -14 5 0 13 -9 16 -20 3 -11 14 -20 22 -20
9 0 13 -3 10 -7 -4 -3 5 -16 18 -29 14 -13 25 -26 25 -29 0 -12 28 -34 34 -28
3 4 6 -1 6 -10 0 -10 4 -17 9 -17 4 0 20 -11 35 -25 27 -25 27 -25 20 -3 -3
13 -11 24 -15 26 -5 2 -9 8 -9 14 0 6 -8 17 -18 25 -9 8 -11 12 -5 8 9 -4 11
-1 7 9 -3 9 -9 16 -13 16 -4 0 -8 6 -8 13 -1 24 -8 42 -21 52 -7 6 -12 15 -11
20 2 6 -2 20 -9 31 -6 12 -8 24 -5 28 3 3 1 6 -6 6 -8 0 -11 8 -8 20 3 11 1
20 -5 20 -5 0 -7 4 -3 9 3 5 1 12 -4 16 -6 3 -8 12 -4 20 3 8 1 15 -5 15 -5 0
-8 10 -8 22 1 13 -2 32 -8 43 -6 11 -9 28 -7 38 1 9 -4 17 -11 17 -9 0 -9 3 2
10 9 6 10 10 3 10 -6 0 -11 13 -11 30 1 17 -2 33 -5 36 -3 3 -2 16 3 29 5 13
6 26 2 30 -10 10 -9 29 3 37 6 5 6 8 0 8 -10 0 -12 89 -3 106 2 5 3 19 2 32 0
12 4 22 10 22 6 0 4 5 -4 10 -12 8 -12 10 -1 10 11 0 11 3 1 15 -10 12 -10 15
0 15 7 0 10 7 6 15 -3 8 -1 15 5 15 6 0 7 5 4 10 -3 5 0 10 7 10 10 0 10 2 -1
9 -9 6 -10 11 -2 15 6 4 9 12 6 17 -4 5 -1 9 5 9 6 0 9 4 5 9 -3 5 -1 12 4 15
5 3 7 16 3 28 -4 16 -2 19 8 13 9 -5 11 -4 6 4 -4 6 -2 18 4 26 7 8 9 15 5 15
-4 0 -2 6 4 13 6 8 8 17 4 20 -3 4 -1 7 6 7 7 0 10 4 7 9 -3 5 1 14 9 21 8 7
12 16 9 21 -3 5 0 9 5 9 6 0 11 8 11 19 0 10 9 30 21 45 11 14 17 31 13 37 -4
8 -3 9 4 5 7 -4 14 3 18 18 3 13 12 27 21 30 8 3 12 10 8 15 -3 5 5 17 17 26
13 8 22 19 22 23 -2 15 19 51 27 46 5 -3 9 2 9 10 0 9 9 25 20 36 11 11 17 20
13 20 -4 0 5 12 20 26 15 14 24 30 21 36 -4 6 -3 8 4 4 6 -3 13 3 17 14 3 11
11 20 16 20 6 0 8 4 4 9 -3 5 4 13 16 16 11 4 18 9 15 12 -3 3 0 11 7 19 30
33 35 42 30 48 -6 6 13 10 30 7 5 -1 6 3 3 8 -8 12 4 42 14 36 5 -3 11 4 15
15 3 11 13 20 21 20 8 0 13 3 13 8 -3 19 2 33 11 27 6 -3 10 -2 10 3 0 10 47
68 90 111 14 13 18 21 10 16 -8 -4 1 6 20 23 19 17 32 31 29 32 -4 0 38 46 92
103 55 56 101 104 102 107 4 11 237 240 237 233 0 -5 9 6 20 22 11 17 20 26
20 21 0 -5 9 2 21 15 12 13 25 23 30 21 5 -1 9 5 9 13 0 8 4 15 9 15 10 0 65
50 54 50 -4 0 7 10 25 21 17 12 32 25 32 31 0 5 5 6 11 3 6 -4 13 2 16 14 3
11 10 18 16 14 6 -4 8 2 5 15 -4 15 -2 19 8 15 8 -3 14 -10 15 -17 0 -6 1 -27
2 -46 1 -19 6 -38 12 -42 7 -5 6 -8 -1 -8 -12 0 -12 -29 1 -49 5 -10 4 -12 -3
-7 -7 4 -12 2 -12 -3 0 -6 4 -11 8 -11 11 0 9 -31 -3 -49 -6 -10 -4 -12 6 -6
12 8 12 6 0 -8 -9 -11 -10 -17 -2 -17 13 0 10 -22 -4 -32 -7 -5 -6 -8 1 -8 12
0 14 -1258 1 -1277 -4 -6 -3 -14 1 -17 10 -6 10 -46 -1 -63 -4 -6 -2 -15 4
-19 8 -4 7 -9 -2 -15 -8 -5 -9 -9 -3 -9 6 0 10 -10 9 -22 -1 -13 -3 -23 -5
-23 -1 0 -3 -12 -4 -27 -1 -16 3 -28 9 -28 7 0 6 -3 -1 -8 -5 -4 -10 -26 -10
-49 1 -24 -3 -43 -7 -43 -4 0 -7 -6 -6 -12 4 -34 -2 -68 -16 -81 -8 -8 -12
-16 -10 -19 2 -2 -8 -5 -22 -6 -15 -1 -29 -6 -32 -10 -3 -5 -24 -10 -46 -11
-76 -4 -90 -6 -97 -16 -5 -6 -8 -6 -8 2 0 12 -24 12 -36 0 -4 -4 -13 -2 -20 4
-18 15 -33 -17 -30 -64 4 -46 11 -55 36 -39 10 6 21 8 24 4 4 -8 133 -8 141 0
3 2 27 2 55 -2 28 -4 53 -4 56 -1 8 8 334 7 334 -1 0 -4 11 -3 25 2 15 6 26 6
30 -1 4 -5 11 -6 17 -3 6 4 45 6 87 4 42 -2 91 -3 109 -2 18 0 32 -4 32 -11 0
-8 3 -8 9 1 4 8 11 13 15 13 22 -3 27 2 25 22 -2 12 0 28 4 35 5 7 3 12 -3 12
-6 0 -9 4 -6 9 3 4 -1 17 -9 27 -9 10 -14 15 -13 9 3 -8 -6 -17 -14 -14 -23 7
-38 5 -38 -4 0 -7 -5 -5 -10 3 -7 11 -10 11 -10 2 0 -7 -5 -10 -10 -7 -6 4 -7
12 -3 18 5 8 2 8 -9 0 -8 -7 -17 -11 -20 -8 -3 3 -23 6 -44 7 -58 2 -137 48
-127 74 3 8 0 21 -6 28 -9 11 -9 16 0 21 7 5 8 10 1 14 -13 8 -21 160 -10 167
5 3 4 12 -2 19 -7 8 -9 19 -5 25 4 6 2 17 -5 25 -8 10 -8 15 1 21 8 5 9 3 4
-6 -5 -9 -4 -11 4 -6 9 6 9 11 1 21 -7 8 -9 19 -5 25 4 6 2 17 -5 25 -6 7 -7
16 -2 19 5 3 9 19 10 36 0 19 -3 28 -10 24 -7 -5 -8 -2 -2 7 13 21 15 81 2 73
-7 -5 -8 -2 -2 7 12 19 14 141 3 156 -7 8 -4 15 8 22 10 6 13 11 7 11 -7 0
-10 24 -9 68 2 38 -2 73 -9 81 -8 11 -8 13 2 7 6 -4 12 -3 12 1 0 5 -6 15 -12
22 -9 9 -9 12 -1 7 8 -4 11 10 9 54 -2 54 0 60 18 61 143 6 183 5 195 -5 11
-8 13 -8 8 0 -8 15 53 23 82 12 12 -4 21 -3 21 2 0 6 5 10 11 10 5 0 8 -4 5
-8 -2 -4 4 -8 14 -8 10 0 16 4 14 8 -7 11 4 10 28 -3 11 -6 18 -7 15 -2 -3 5
31 8 81 7 48 -1 87 -3 87 -4 0 -1 8 -3 18 -5 10 -2 14 1 10 7 -4 7 2 9 17 5
13 -3 29 -2 36 4 9 7 11 5 10 -8 -1 -23 -18 -43 -30 -35 -5 3 -6 1 -3 -5 7
-12 -14 -63 -26 -63 -5 0 -6 -4 -2 -9 3 -5 -1 -15 -8 -23 -8 -7 -20 -31 -27
-53 -7 -22 -16 -45 -21 -51 -5 -6 -10 -19 -12 -30 -2 -10 -10 -35 -19 -54 -8
-19 -14 -45 -13 -57 1 -13 -2 -23 -6 -23 -5 0 -9 -5 -9 -11 0 -5 6 -7 13 -4 6
4 5 1 -3 -7 -15 -13 -17 -24 -24 -98 -2 -19 -7 -43 -11 -53 -4 -9 -5 -24 -1
-32 3 -8 2 -15 -2 -15 -4 0 -7 -67 -7 -149 0 -82 2 -148 5 -146 3 2 6 -13 7
-33 1 -21 5 -53 8 -72 4 -19 7 -41 8 -47 0 -7 4 -13 9 -13 5 0 4 -9 -1 -19 -8
-14 -7 -22 3 -30 8 -7 13 -25 12 -41 -1 -16 1 -27 5 -24 7 4 20 -28 23 -56 0
-8 6 -14 12 -13 6 1 10 -8 9 -20 -1 -12 2 -27 7 -33 5 -7 11 -23 13 -35 3 -13
9 -25 15 -27 5 -2 10 -8 10 -14 0 -5 10 -24 22 -41 12 -17 16 -27 7 -22 -14 9
18 -34 36 -47 6 -4 6 -8 2 -8 -5 0 -1 -7 7 -16 9 -8 14 -20 11 -25 -4 -5 -1
-9 6 -9 8 0 9 -3 0 -13 -6 -8 -8 -17 -4 -21 4 -4 -1 -4 -11 0 -14 5 -15 9 -4
15 7 5 8 9 2 9 -5 0 -15 -5 -22 -12 -7 -7 -12 -8 -12 -3 0 5 -7 0 -16 -11 -8
-10 -13 -13 -9 -6 4 7 0 12 -10 12 -9 0 -13 -5 -10 -10 4 -7 -3 -9 -19 -6 -15
3 -24 1 -21 -5 4 -5 -10 -9 -29 -9 -20 0 -36 -4 -36 -8 0 -4 -12 -9 -26 -10
-15 -1 -32 -6 -38 -11 -6 -4 -21 -7 -33 -6 -13 1 -23 -2 -23 -7 0 -4 -3 -7 -7
-7 -28 4 -53 -2 -47 -12 5 -8 2 -9 -12 -1 -13 7 -24 6 -43 -7 -19 -12 -23 -12
-17 -2 7 11 6 12 -5 5 -8 -4 -20 -10 -26 -11 -7 -2 -19 -4 -25 -6 -7 -1 -19
-6 -27 -11 -8 -5 -16 -4 -21 4 -6 10 -8 10 -12 0 -2 -7 -16 -12 -31 -12 -15 0
-27 -4 -27 -8 0 -4 -11 -6 -25 -5 -14 2 -25 0 -25 -4 0 -7 -17 -9 -83 -11 -26
-1 -35 -5 -30 -13 4 -7 0 -6 -10 2 -11 8 -17 9 -17 3 0 -6 -7 -9 -15 -6 -8 4
-22 1 -30 -6 -9 -8 -15 -8 -15 -2 0 7 -10 8 -29 2 -16 -4 -32 -6 -35 -2 -3 3
-6 1 -6 -4 0 -6 -24 -9 -52 -9 -29 1 -57 -3 -61 -9 -6 -8 -10 -7 -14 1 -3 9
-10 10 -22 4 -9 -5 -36 -8 -59 -6 -23 2 -42 -1 -42 -6 0 -6 -6 -7 -12 -2 -21
12 -48 14 -48 2 0 -6 -5 -7 -12 -2 -7 4 -23 6 -35 4 -13 -1 -23 3 -23 10 0 7
-6 4 -15 -7 -8 -10 -15 -14 -15 -9 0 6 -30 10 -72 9 -40 0 -79 4 -87 10 -11 8
-13 8 -7 -1 5 -9 0 -13 -13 -13 -12 0 -21 4 -21 9 0 10 -43 7 -61 -5 -8 -4 -9
-3 -5 4 4 8 -4 10 -26 7 -18 -2 -37 0 -43 4 -10 8 -14 9 -70 14 -16 1 -35 5
-40 9 -6 4 -23 5 -38 4 -15 -2 -27 0 -27 4 0 4 -10 6 -22 5 -13 -1 -36 4 -52
12 -15 8 -25 10 -22 4 4 -6 2 -11 -3 -11 -17 0 -13 -17 5 -24 10 -4 13 -2 8 7
-9 14 24 -10 44 -33 8 -9 11 -10 7 -2 -6 11 -3 11 16 0 13 -7 27 -16 30 -20 3
-5 17 -9 32 -10 15 -1 29 -8 32 -16 3 -7 9 -10 15 -7 5 3 10 2 10 -2 0 -9 87
-38 103 -35 4 1 7 -3 7 -10 0 -6 3 -9 6 -5 3 3 27 -2 53 -12 25 -10 52 -16 60
-13 8 2 11 0 8 -5 -6 -9 4 -11 76 -16 27 -1 36 -6 32 -16 -4 -11 -2 -11 8 -3
10 9 17 8 27 -1 10 -10 11 -9 5 3 -6 10 -1 8 13 -4 17 -14 22 -16 22 -5 0 12
2 12 9 0 5 -8 18 -12 30 -8 15 4 21 0 21 -11 0 -12 3 -13 8 -5 4 7 22 12 39
10 17 -1 29 -5 26 -9 -7 -13 12 -9 25 4 9 9 12 9 12 1 0 -8 20 -11 58 -9 31 1
65 -2 74 -6 12 -6 18 -5 18 2 0 6 5 8 13 3 6 -4 22 -6 35 -4 13 1 30 -3 38
-10 12 -9 13 -9 9 2 -4 11 13 14 92 13 54 0 106 3 117 9 13 6 16 6 12 -2 -4
-6 -3 -11 3 -11 5 0 12 4 15 8 2 4 30 9 61 10 32 1 64 7 73 14 13 11 14 11 7
-2 -7 -12 -6 -13 6 -3 8 6 27 10 41 9 15 -2 25 0 23 4 -3 5 2 10 10 14 8 3 15
0 15 -6 0 -7 4 -7 13 -1 6 6 22 9 35 8 12 -1 22 1 22 5 0 4 11 6 25 5 14 -2
25 0 25 5 0 4 11 6 25 5 14 -2 25 0 25 5 0 4 10 7 23 6 12 -1 25 2 28 7 4 5
18 9 33 9 14 1 24 4 21 7 -2 4 8 6 23 6 15 -1 32 1 37 4 13 7 35 12 58 14 9 1
17 5 17 10 0 4 5 5 10 2 6 -3 10 -1 10 6 0 9 3 9 14 0 9 -8 15 -8 18 -1 1 5
14 12 28 15 14 3 26 9 28 15 2 6 8 7 13 4 6 -3 17 0 26 8 14 11 16 11 8 -2 -6
-12 -5 -13 6 -2 7 6 21 12 32 12 10 0 15 4 12 10 -3 5 -1 18 5 27 11 17 11 17
6 1 -4 -13 0 -18 14 -18 11 0 20 -4 20 -10 0 -5 7 -10 15 -10 8 0 15 -4 15
-10 0 -5 4 -9 9 -7 5 1 17 -7 27 -19 11 -11 34 -27 52 -35 17 -7 32 -17 32
-21 0 -5 7 -8 15 -8 8 0 15 -5 15 -11 0 -5 4 -8 9 -5 5 3 14 -1 21 -10 7 -8
19 -13 27 -10 8 3 12 2 9 -3 -3 -5 1 -12 10 -15 9 -3 12 -2 8 5 -3 6 3 5 15
-3 12 -7 21 -16 21 -20 0 -5 9 -8 20 -8 11 0 20 -4 20 -9 0 -8 75 -26 93 -22
4 0 7 -4 7 -11 0 -6 3 -9 6 -5 3 3 24 -1 46 -9 22 -7 44 -11 49 -8 5 3 9 1 9
-5 0 -5 8 -10 18 -10 61 -2 112 -7 112 -12 0 -5 73 -10 168 -11 28 0 52 -4 52
-9 0 -5 0 -11 0 -14 0 -3 -3 -5 -7 -6 -5 -1 -20 -10 -34 -20 -14 -10 -30 -15
-35 -11 -5 4 -6 3 -2 -2 7 -8 -46 -50 -111 -91 -9 -5 -28 -18 -43 -28 -16 -10
-28 -15 -28 -10 0 4 -5 0 -11 -10 -5 -9 -16 -17 -23 -17 -7 0 -21 -8 -32 -17
-11 -10 -45 -31 -76 -48 -31 -16 -54 -34 -51 -39 4 -5 -1 -7 -10 -3 -9 3 -23
0 -31 -8 -7 -8 -16 -11 -20 -8 -3 4 -6 0 -6 -7 0 -7 -3 -11 -6 -7 -4 3 -13 -1
-21 -9 -8 -8 -18 -12 -23 -9 -4 3 -10 -2 -14 -10 -3 -9 -12 -12 -22 -8 -12 4
-15 3 -10 -5 5 -8 2 -10 -8 -6 -9 4 -16 1 -16 -6 0 -7 -6 -10 -14 -7 -8 3 -17
-1 -20 -9 -3 -8 -12 -14 -21 -14 -8 0 -15 -3 -15 -7 0 -5 -12 -9 -26 -10 -15
0 -29 -5 -33 -10 -3 -4 -15 -10 -26 -11 -11 -2 -24 -8 -29 -13 -6 -5 -18 -9
-27 -9 -9 0 -19 -6 -22 -14 -3 -8 -16 -12 -31 -11 -14 2 -26 0 -26 -4 0 -4 -6
-8 -12 -9 -13 -1 -48 -9 -58 -12 -3 -1 -8 -2 -12 -1 -5 0 -8 -3 -8 -8 0 -5 -8
-8 -17 -7 -10 2 -20 -1 -23 -5 -3 -5 -17 -11 -30 -13 -14 -2 -25 -5 -25 -6 0
-3 -55 -11 -82 -13 -13 0 -23 -4 -23 -8 0 -3 -11 -7 -25 -8 -47 -3 -55 -4 -55
-11 0 -4 -22 -7 -49 -6 -39 1 -47 -2 -43 -14 4 -12 3 -13 -9 -4 -8 6 -27 9
-44 6 -16 -2 -67 -5 -112 -5 -46 -1 -79 -6 -76 -11 4 -5 0 -6 -7 -1 -7 4 -40
9 -74 9 -33 1 -67 5 -73 9 -7 5 -13 4 -13 -1 0 -5 -7 -9 -15 -9 -8 0 -12 4 -9
9 8 13 -10 10 -25 -5 -11 -10 -12 -9 -6 2 6 11 4 13 -8 8 -10 -3 -17 -2 -17 4
0 6 -9 8 -19 4 -11 -3 -22 -1 -26 5 -3 6 -11 7 -17 4 -6 -4 -14 -1 -18 5 -5 9
-11 7 -21 -5 -8 -10 -9 -15 -2 -11 16 10 44 -3 36 -17 -4 -6 1 -5 10 3 15 12
21 9 18 -11 0 -4 11 -5 24 -2 14 2 25 0 25 -6 0 -5 11 -10 25 -10 14 0 25 -3
25 -8 0 -4 16 -12 35 -18 24 -8 32 -8 28 0 -4 6 1 5 10 -3 9 -7 17 -10 17 -5
0 5 7 0 15 -10 8 -11 15 -14 15 -7 0 7 5 9 13 4 6 -4 23 -9 36 -11 14 -2 33
-8 43 -13 13 -7 18 -6 18 3 1 8 4 7 10 -3 6 -10 20 -15 35 -14 14 2 25 0 25
-5 0 -5 11 -7 25 -5 14 1 28 -1 30 -5 3 -5 15 -6 27 -2 16 4 19 2 13 -8 -6
-10 -4 -11 6 -4 18 11 39 14 39 5 0 -4 24 -8 53 -9 132 -4 152 -6 159 -16 5
-6 8 -7 8 -1 0 12 80 13 99 1 10 -6 12 -5 7 2 -4 7 -2 12 3 12 6 0 11 -6 11
-12 0 -10 2 -10 8 -1 9 14 151 23 159 10 4 -6 11 -4 17 4 7 9 31 15 65 16 33
0 57 6 62 14 7 12 9 12 9 0 0 -9 4 -10 13 -4 6 5 19 9 27 8 8 0 17 3 20 7 3 4
22 8 43 10 20 1 37 6 37 10 0 5 11 6 25 4 17 -3 23 -1 19 6 -5 7 0 9 14 6 12
-4 22 -2 22 2 0 5 9 7 20 5 11 -2 20 1 20 7 0 6 9 8 20 5 11 -3 20 -2 20 3 0
4 7 11 16 14 8 3 12 2 9 -4 -3 -6 10 -1 29 11 19 11 40 18 46 14 5 -3 10 -1
10 4 0 6 3 11 8 10 4 -1 16 2 27 5 11 4 25 8 30 8 6 1 16 8 23 15 8 7 18 11
23 8 5 -4 9 -1 9 6 0 6 8 9 20 6 11 -3 18 -1 14 4 -5 9 0 11 29 13 17 1 36 19
30 29 -2 4 5 7 16 7 12 0 38 9 58 20 21 11 44 20 51 20 7 0 10 5 7 10 -3 6 -1
11 4 11 6 1 15 2 21 3 5 0 18 9 30 18 11 10 20 15 20 12 0 -4 6 -1 13 5 8 6
17 8 20 4 4 -3 7 -1 7 6 0 6 11 16 25 21 14 5 25 14 25 20 0 6 5 8 10 5 6 -3
13 1 16 9 3 9 10 13 15 11 4 -3 18 4 29 15 11 11 26 18 32 14 7 -4 8 -3 4 4
-4 7 2 16 17 21 13 5 30 15 38 23 8 7 33 26 57 42 23 16 42 32 42 35 0 3 9 12
21 19 17 11 20 11 14 0 -4 -7 6 2 23 20 17 17 36 32 41 32 6 0 11 5 11 10 0 6
4 10 9 10 4 0 32 23 61 50 29 28 57 50 62 50 5 0 6 5 3 10 -3 6 -1 10 5 10 6
0 17 6 24 13 7 6 29 25 49 41 20 17 34 34 31 38 -3 4 -1 8 5 8 15 0 62 46 54
53 -6 7 12 11 30 8 5 -1 6 2 3 7 -6 10 40 62 54 62 6 0 10 7 10 15 0 8 5 15
11 15 5 0 7 5 4 10 -3 6 1 10 9 10 9 0 15 3 13 8 -4 12 40 62 48 54 5 -4 5 -2
2 4 -7 12 28 74 43 74 5 0 9 3 8 8 -3 11 38 73 45 66 3 -3 3 4 0 17 -4 15 -3
20 5 15 8 -5 12 1 12 14 0 12 5 18 10 15 6 -4 13 7 16 24 4 16 14 38 25 49 10
11 15 23 12 26 -4 3 -1 6 6 6 7 0 9 5 6 10 -3 6 -1 10 4 10 6 0 11 7 11 15 0
9 6 18 14 21 8 3 12 13 9 25 -3 10 0 19 6 19 6 0 11 7 11 15 0 9 6 18 14 21 8
3 13 13 11 22 -1 9 6 29 17 45 11 15 16 27 11 27 -4 0 -3 4 2 8 10 7 38 59 39
74 1 3 4 10 9 14 4 4 7 16 7 26 0 10 5 18 12 18 6 0 8 3 5 6 -3 4 -1 16 5 28
7 11 13 23 13 26 0 3 6 15 13 28 7 12 10 22 6 22 -3 0 1 11 10 25 9 13 16 31
16 40 0 8 5 15 12 15 6 0 9 3 6 6 -4 3 0 21 8 40 8 19 11 34 7 34 -5 0 -2 4 6
9 13 8 16 18 23 68 1 7 7 14 14 17 7 3 11 14 9 26 -2 11 1 20 7 20 6 0 8 3 5
7 -4 3 -2 11 3 18 5 6 11 20 13 31 1 10 7 25 11 33 7 10 5 12 -5 6 -8 -5 -5 1
5 13 11 12 16 22 11 22 -4 0 -2 7 5 15 7 8 9 15 4 15 -5 0 0 7 10 15 12 9 15
15 7 15 -10 0 -11 3 -2 13 6 8 8 17 4 20 -3 4 0 7 7 7 7 0 11 3 7 6 -3 3 1 23
8 45 15 41 15 42 15 60 0 5 4 8 8 5 5 -3 8 8 7 24 -1 16 2 27 6 25 6 -4 14 25
22 80 2 11 9 31 16 43 7 13 10 26 7 29 -3 3 2 13 11 21 10 11 12 17 4 20 -6 2
-11 8 -11 13 0 6 5 7 10 4 6 -3 10 0 11 7 1 15 3 27 18 88 7 25 14 56 17 70 2
14 7 32 11 40 9 23 12 32 19 70 3 19 10 43 15 53 18 32 -14 18 -65 -28 -26
-25 -53 -45 -58 -45 -5 0 -6 -5 -2 -12 4 -6 3 -8 -4 -5 -5 4 -26 -9 -46 -28
-20 -19 -40 -35 -44 -35 -4 0 -19 -13 -32 -30 -14 -16 -31 -29 -37 -30 -7 0
-13 -5 -13 -12 0 -6 -2 -9 -5 -6 -3 3 -18 -6 -33 -21 -43 -40 -82 -72 -82 -65
0 4 -13 -9 -30 -27 -16 -19 -30 -30 -30 -25 0 5 -14 -5 -30 -23 -17 -17 -33
-31 -36 -31 -4 0 -16 -10 -28 -22 -12 -13 -28 -24 -36 -26 -7 -2 -18 -9 -24
-17 -18 -22 -135 -115 -145 -115 -5 0 -13 -9 -16 -20 -4 -11 -11 -18 -16 -15
-5 4 -9 3 -9 -2 0 -4 -17 -19 -37 -33 -79 -53 -124 -95 -118 -112 7 -22 16
-91 18 -133 1 -22 6 -43 11 -47 5 -3 9 -29 9 -57 1 -28 4 -52 9 -52 4 -1 17
-3 28 -4 11 -1 21 -4 23 -5 1 -1 26 -3 55 -4 34 -1 56 -7 62 -16 8 -12 10 -12
10 -1 0 11 3 11 15 1 10 -8 15 -9 15 -1 0 7 8 8 23 2 13 -5 38 -8 56 -7 18 1
35 -2 37 -6 3 -5 13 -3 22 4 12 10 14 10 8 1 -7 -12 20 -19 49 -13 5 1 7 -2 3
-6 -5 -4 -23 -9 -40 -11 -45 -4 -102 -11 -108 -13 -3 -1 -16 -1 -29 0 -17 1
-21 -2 -15 -12 6 -10 4 -10 -9 1 -13 10 -17 10 -17 1 0 -7 -8 -10 -19 -7 -10
2 -26 0 -36 -6 -12 -6 -16 -6 -11 1 4 7 -3 8 -21 2 -16 -5 -46 -12 -68 -17
-39 -8 -40 -9 -40 -51 0 -23 -4 -42 -9 -42 -5 0 -3 -7 4 -15 8 -9 8 -15 2 -15
-6 0 -9 -11 -6 -25 2 -14 1 -25 -3 -25 -5 0 -8 -28 -7 -63 0 -34 -3 -67 -9
-74 -5 -7 -6 -17 -2 -23 3 -5 2 -10 -2 -10 -15 0 -34 38 -22 45 7 5 7 11 0 19
-6 7 -12 34 -13 59 -2 26 -7 47 -11 47 -4 0 -7 6 -6 13 1 6 0 23 -1 37 l-2 25
-10 -27 c-5 -16 -15 -28 -21 -28 -7 0 -6 -4 3 -10 12 -8 12 -10 -3 -16 -9 -3
-15 -10 -12 -14 7 -12 -16 -60 -26 -54 -4 2 -6 -4 -4 -15 2 -11 -3 -22 -12
-25 -9 -4 -13 -13 -9 -22 3 -8 2 -13 -2 -10 -4 3 -14 -4 -21 -16 -8 -13 -9
-18 -1 -13 6 4 -5 -16 -25 -44 -20 -28 -34 -55 -30 -61 3 -5 -1 -10 -9 -10 -9
0 -16 -6 -16 -14 0 -8 -7 -17 -16 -20 -8 -3 -12 -10 -9 -16 3 -5 2 -10 -4 -10
-6 0 -7 -7 -4 -17 4 -9 2 -14 -3 -11 -9 4 -61 -44 -55 -51 5 -4 -20 -37 -64
-84 -16 -18 -29 -34 -29 -37 -1 -7 -26 -38 -68 -82 -20 -21 -34 -38 -31 -38 4
0 -16 -21 -43 -47 -27 -25 -48 -50 -46 -56 2 -5 -4 -7 -13 -3 -9 3 -13 2 -10
-4 8 -13 -45 -62 -62 -56 -7 3 -15 1 -18 -4 -3 -5 -23 -8 -43 -6 -20 2 -45 -1
-54 -5 -10 -6 -19 -5 -23 1 -4 6 -12 7 -18 3 -15 -9 -47 -11 -47 -3 0 4 -18 6
-40 5 -23 -1 -43 2 -46 6 -2 5 -11 6 -19 2 -9 -3 -28 0 -43 6 -16 7 -38 13
-50 14 -12 1 -22 5 -22 9 0 4 -13 8 -29 8 -17 0 -33 5 -36 11 -4 6 -13 8 -21
5 -8 -3 -14 -2 -14 2 0 4 -12 16 -27 26 -14 11 -23 14 -19 8 4 -7 2 -12 -3
-12 -6 0 -11 5 -11 10 0 6 -5 10 -11 10 -12 0 -103 60 -107 72 -2 4 -8 8 -12
8 -16 0 -72 58 -66 68 4 6 -2 16 -11 22 -15 10 -16 11 -1 6 9 -2 34 0 55 6 21
7 41 11 46 10 4 -1 7 3 7 8 0 6 12 10 26 10 14 0 23 4 19 10 -4 6 5 10 20 10
15 0 24 4 20 10 -3 6 1 10 9 10 18 0 88 31 97 43 3 5 9 9 12 9 19 0 47 12 47
19 0 5 3 8 8 7 4 -1 21 5 37 12 17 7 33 13 38 12 4 -1 7 3 7 8 0 6 7 10 15 10
9 0 18 7 21 15 4 8 10 12 16 9 5 -3 18 2 29 12 10 9 19 13 19 8 0 -5 7 -1 15
10 7 10 19 15 24 11 6 -3 14 1 17 9 3 9 15 16 25 16 10 0 19 4 19 9 0 8 37 24
53 22 4 -1 7 4 7 10 0 5 14 15 30 20 17 6 30 15 30 21 0 5 4 7 9 4 5 -3 11 1
15 9 3 8 12 15 20 15 8 0 16 5 18 12 2 6 14 12 27 13 12 1 26 6 29 11 7 10 43
27 51 24 2 -1 8 5 13 14 5 9 13 14 19 11 5 -4 9 1 9 9 0 9 7 13 20 11 13 -2
20 2 20 11 0 8 5 12 10 9 6 -3 10 -1 10 5 0 6 4 9 9 6 5 -3 15 1 22 10 7 8 30
24 51 35 22 11 41 26 45 34 3 8 9 12 14 9 5 -3 12 2 15 10 3 9 10 13 15 10 5
-3 9 0 9 6 0 6 4 9 9 5 5 -3 17 5 25 17 9 12 16 19 16 15 0 -5 7 -1 16 7 8 9
19 14 24 11 4 -3 15 5 23 18 15 23 15 23 -35 22 -27 0 -52 4 -55 9 -3 4 -10 2
-15 -5 -5 -8 -11 -10 -14 -4 -2 6 -29 9 -59 8 -30 -1 -55 2 -55 7 0 11 -33 7
-42 -5 -5 -6 -8 -5 -8 3 0 7 -4 11 -9 7 -5 -3 -13 0 -17 6 -4 7 -3 9 4 5 6 -3
13 -2 16 3 3 4 19 7 36 5 17 -2 30 1 30 7 0 8 5 7 15 -1 9 -8 15 -8 15 -2 0 6
11 9 25 6 15 -2 25 0 25 7 0 6 7 9 15 6 8 -4 17 -2 20 3 3 5 17 7 31 4 16 -3
23 -1 19 6 -4 6 3 9 16 7 19 -3 71 4 119 17 8 3 18 5 21 5 4 1 5 15 4 31 -1
17 1 30 5 30 11 0 7 34 -5 42 -7 5 -6 8 1 8 5 0 10 10 11 23 0 12 3 48 5 79 3
32 1 63 -4 70 -5 10 -8 8 -8 -5 0 -10 -4 -16 -9 -12 -5 3 -12 1 -16 -5 -4 -6
-11 -7 -17 -4 -7 4 -8 2 -4 -4 4 -7 -3 -14 -19 -18 -13 -3 -23 -9 -21 -13 5
-8 -20 -31 -28 -24 -3 3 -8 -2 -12 -11 -3 -9 -10 -13 -15 -10 -5 3 -12 -2 -15
-10 -3 -9 -10 -13 -15 -10 -5 3 -12 -2 -15 -10 -3 -9 -12 -16 -18 -16 -7 0
-23 -10 -36 -22 -14 -13 -28 -22 -32 -21 -5 2 -8 -1 -8 -6 0 -5 -19 -19 -42
-31 -24 -12 -47 -28 -51 -36 -5 -8 -12 -12 -18 -9 -5 4 -9 1 -9 -5 0 -6 -4 -9
-9 -6 -5 3 -11 -1 -15 -9 -3 -8 -11 -15 -19 -15 -7 0 -24 -11 -36 -24 -14 -15
-29 -22 -39 -19 -10 4 -13 2 -8 -5 4 -7 1 -12 -8 -12 -9 0 -16 -5 -16 -11 0
-5 -4 -7 -10 -4 -5 3 -10 2 -10 -3 0 -5 -13 -15 -30 -22 -16 -7 -30 -16 -30
-21 0 -5 -9 -9 -19 -9 -10 0 -22 -7 -25 -16 -3 -8 -10 -12 -16 -9 -6 3 -13 -1
-16 -9 -3 -9 -10 -14 -14 -11 -5 3 -16 -2 -24 -11 -9 -8 -16 -12 -16 -8 0 4
-8 -3 -19 -14 -10 -12 -22 -18 -26 -14 -5 4 -5 -1 -2 -10 4 -12 1 -16 -13 -13
-13 3 -17 -1 -13 -11 3 -8 0 -14 -6 -14 -6 0 -11 4 -11 9 0 5 -10 11 -22 13
-16 2 -23 10 -24 26 -1 12 -2 23 -4 25 -6 8 -10 53 -12 134 -1 56 -5 90 -11
86 -6 -4 -7 -1 -2 8 14 21 15 59 2 59 -8 0 -7 3 2 9 9 6 10 11 2 15 -8 5 -8
13 -1 27 8 14 7 19 -2 19 -10 0 -10 2 1 9 11 7 11 9 0 14 -12 5 -12 6 0 6 11
1 11 4 1 16 -9 11 -10 19 -1 28 8 10 7 17 -1 25 -9 9 -9 12 1 12 7 0 9 5 4 13
-11 18 -10 51 2 59 7 5 7 8 0 8 -12 0 -14 338 -3 356 4 6 4 14 0 18 -12 12 -9
406 3 406 7 0 7 3 -1 8 -5 4 -10 18 -10 32 0 14 5 28 10 32 8 5 7 8 0 8 -7 0
-11 17 -11 40 1 29 5 39 14 36 7 -3 13 -2 13 2 0 9 156 9 166 0 3 -4 16 -3 28
2 13 4 29 4 39 -1 9 -6 23 -9 29 -8 7 2 29 -1 48 -5 83 -18 110 -27 105 -36
-3 -4 6 -7 20 -6 13 2 22 -1 19 -6 -3 -4 8 -11 25 -14 17 -4 31 -10 31 -14 0
-4 13 -13 30 -20 16 -7 27 -16 24 -21 -3 -5 0 -9 6 -9 12 0 80 -65 80 -77 0
-5 9 -14 20 -21 11 -7 20 -19 20 -27 0 -8 5 -15 11 -15 5 0 7 -4 4 -10 -3 -5
-1 -10 6 -10 7 0 10 -3 6 -6 -3 -4 1 -13 9 -22 9 -8 13 -23 11 -34 -3 -10 -2
-16 2 -14 4 3 13 -4 20 -16 10 -16 10 -19 -1 -13 -10 6 -11 5 0 -6 6 -7 12
-21 12 -31 0 -10 5 -18 11 -18 5 0 8 -4 4 -9 -3 -6 1 -15 8 -22 7 -7 11 -25 9
-41 -3 -17 0 -28 7 -28 7 0 9 -4 6 -10 -4 -6 5 -9 19 -8 15 1 26 6 26 10 0 4
7 5 15 2 8 -4 15 -1 15 5 0 6 5 11 11 11 5 0 7 -5 4 -11 -4 -6 2 -5 13 2 12 7
18 17 16 21 -3 4 0 8 6 8 6 0 8 5 3 13 -9 15 -11 29 -14 90 -2 26 -7 47 -13
47 -6 0 -4 5 4 10 13 9 13 10 0 10 -13 0 -13 1 0 10 8 5 10 10 5 10 -6 0 -11
12 -11 28 -1 15 -5 43 -9 62 -3 19 -7 47 -8 63 0 15 -4 27 -9 27 -4 0 -6 15
-5 33 2 17 0 44 -4 58 -4 14 -2 34 3 44 7 12 7 16 0 11 -6 -3 -13 -2 -17 4 -3
5 0 10 7 10 8 0 9 3 3 8 -5 4 -10 16 -10 27 0 13 -6 20 -17 19 -10 -1 -18 1
-18 5 0 4 -8 7 -17 8 -45 3 -63 8 -63 16 0 5 -7 7 -15 4 -8 -4 -17 -1 -21 4
-3 6 -15 9 -25 6 -11 -3 -19 -1 -19 5 0 5 -9 6 -20 3 -11 -3 -20 -2 -20 2 0 5
-17 10 -37 11 -21 2 -41 8 -44 14 -6 9 -12 8 -23 -1 -9 -8 -16 -9 -16 -4 0 5
-6 10 -12 11 -7 0 -31 4 -53 8 -22 4 -66 7 -97 8 -32 1 -58 3 -58 6 0 8 -219
4 -227 -3 -3 -4 -12 -2 -19 4 -8 7 -14 7 -19 -1 -5 -8 -11 -7 -23 2 -9 7 -13
8 -9 2 3 -6 0 -11 -7 -11 -7 0 -13 6 -13 14 0 7 5 13 11 13 6 0 5 4 -3 9 -9 6
-10 10 -2 16 9 5 9 10 0 21 -9 11 -9 14 1 14 10 0 10 3 1 14 -9 10 -9 16 -1
21 8 5 8 10 0 20 -8 10 -8 15 1 20 8 6 7 10 -2 16 -8 5 -9 9 -4 9 6 0 11 27
12 63 1 103 6 151 16 165 6 8 6 12 -1 12 -7 0 -4 12 6 29 9 16 19 28 21 25 2
-2 10 1 17 7 24 19 134 31 172 17 13 -4 21 -4 18 1 -3 5 1 11 9 15 8 3 15 1
15 -3 0 -5 13 -5 28 1 23 9 27 16 26 42 -1 17 -2 40 -3 51 -1 15 -9 21 -31 22
-18 1 -28 -2 -25 -7 4 -6 -3 -6 -19 0 -17 6 -27 6 -32 -1 -4 -8 -9 -7 -15 2
-7 11 -9 11 -9 1 0 -9 -5 -10 -18 -3 -10 5 -24 6 -32 1 -8 -5 -21 -5 -30 0 -9
5 -22 5 -30 0 -8 -5 -21 -5 -31 0 -9 5 -19 7 -22 4 -11 -12 -108 -13 -101 -2
5 7 2 8 -7 2 -21 -13 -200 -14 -192 0 5 8 3 8 -8 1 -16 -12 -68 -13 -86 -2 -7
5 -13 4 -13 -1 0 -10 -30 -9 -48 2 -6 4 -12 3 -12 -2 0 -9 -61 -7 -87 3 -7 2
-13 -1 -13 -8 0 -7 -3 -8 -8 -2 -10 15 -55 18 -46 3 4 -7 3 -8 -4 -4 -24 15
-55 15 -69 1 -8 -8 -10 -15 -4 -15 7 0 7 -8 1 -25 -7 -17 -6 -25 1 -25 8 0 8
-4 0 -13 -8 -11 -5 -16 15 -26 19 -8 24 -8 18 0 -5 8 -3 9 6 4 7 -4 51 -10 99
-12 47 -2 92 -9 100 -16 12 -10 13 -9 7 1 -7 11 -4 11 15 0 13 -7 28 -17 34
-23 13 -13 36 -77 24 -69 -5 3 -4 -7 1 -21 6 -15 10 -34 10 -43 0 -15 -2 -15
-10 -2 -6 9 -10 10 -10 3 0 -6 4 -14 9 -17 8 -5 11 -42 13 -151 0 -27 5 -56
12 -64 8 -11 8 -13 0 -8 -8 5 -12 -11 -11 -52 1 -33 5 -57 10 -54 5 3 4 -4 -2
-15 -14 -26 -14 -35 0 -26 6 3 3 -6 -7 -20 -13 -20 -19 -24 -25 -14 -5 7 -9 8
-9 3 0 -12 -56 -35 -83 -35 -9 0 -17 -4 -17 -9 0 -8 -37 -24 -52 -22 -5 1 -8
-4 -8 -10 0 -6 -6 -9 -14 -6 -8 3 -17 -1 -20 -9 -3 -9 -10 -13 -15 -10 -4 3
-16 -3 -26 -14 -10 -11 -24 -20 -32 -20 -7 0 -13 -5 -13 -11 0 -5 -5 -7 -10
-4 -6 3 -13 -1 -16 -10 -4 -9 -12 -14 -19 -12 -6 3 -20 -6 -30 -19 -10 -13
-22 -24 -27 -24 -9 0 -62 -46 -137 -121 l-46 -45 -210 2 c-115 1 -210 3 -210
4 0 1 -19 2 -43 3 -23 1 -42 -1 -42 -4 0 -3 -10 -5 -22 -3 -77 11 -117 11
-111 0 4 -6 -1 -5 -10 3 -12 9 -17 10 -17 2 0 -7 -4 -10 -8 -7 -5 3 -32 6 -60
7 -29 2 -53 7 -53 13 -1 6 -2 38 -3 71 0 33 -5 66 -10 74 -6 9 -5 12 1 8 13
-8 12 212 -1 232 -6 9 -5 12 0 8 6 -3 10 56 10 148 1 109 -2 153 -10 149 -6
-3 -2 2 8 10 11 9 16 16 10 16 -5 0 -8 20 -6 45 2 25 7 43 11 40 4 -2 8 2 8
10 0 8 -5 11 -11 8 -6 -4 -5 1 3 10 11 14 11 17 0 17 -12 0 -12 2 -1 9 8 4 14
11 14 14 0 40 33 68 83 71 11 1 25 4 30 7 6 3 28 5 50 3 22 -1 43 2 47 9 5 8
8 8 8 1 0 -10 14 -11 64 -1 23 4 45 39 27 45 -9 3 -9 8 1 20 10 12 10 16 1 19
-7 3 -13 10 -13 18 0 14 -48 14 -70 0 -8 -5 -11 -4 -7 1 3 6 -13 10 -39 9 -24
0 -44 -4 -44 -10 0 -5 -5 -3 -10 5 -5 8 -10 10 -10 5 0 -13 -50 -12 -51 0 0 5
8 12 18 16 10 4 14 8 8 9 -5 0 6 8 25 17 19 10 44 25 54 35 10 9 23 15 28 12
4 -3 8 -1 8 4 0 5 12 15 28 23 15 8 33 20 40 27 8 7 18 10 23 7 5 -4 9 0 9 8
0 7 16 19 35 27 19 8 35 18 35 22 0 5 4 7 9 4 5 -3 12 1 15 10 4 9 9 14 12 11
4 -3 13 1 21 9 8 8 18 12 22 10 4 -3 14 4 21 15 8 10 20 19 27 19 7 0 29 11
49 25 20 14 40 23 44 20 4 -3 10 2 14 10 3 9 12 12 22 8 12 -4 15 -3 10 5 -4
7 -1 12 8 12 9 0 16 4 16 10 0 5 7 7 15 4 8 -4 15 -2 15 4 0 9 47 27 62 24 5
-1 7 4 5 11 -1 6 4 11 11 10 6 -2 12 2 12 8 0 5 4 8 9 4 5 -3 16 1 24 9 8 8
17 13 20 9 3 -3 18 4 34 14 31 22 64 37 76 35 4 -1 7 3 7 8 0 6 9 10 19 10 11
0 23 5 26 11 4 6 13 8 20 5 7 -2 16 2 19 10 3 9 10 13 15 10 5 -4 15 -1 23 6
7 7 20 14 28 14 26 3 45 9 51 17 3 4 16 10 29 12 13 3 43 14 67 25 23 11 49
20 57 20 8 0 17 6 19 13 4 9 6 9 6 0 1 -9 8 -8 28 2 15 8 30 12 35 9 4 -3 8 0
8 6 0 7 6 10 14 7 8 -3 16 -1 18 4 2 6 10 11 18 12 8 2 21 6 28 10 6 5 16 6
21 2 5 -3 13 0 16 6 4 5 13 8 21 5 8 -3 14 0 14 6 0 6 3 9 6 5 4 -3 21 0 39 8
19 7 36 10 40 7 3 -4 9 -1 13 5 4 6 23 14 42 16 19 3 35 6 35 7 0 4 52 13 82
14 17 0 29 4 26 9 -2 4 7 7 21 7 36 0 40 1 51 10 6 4 24 10 40 11 17 2 33 8
37 14 5 6 8 5 8 -3 0 -7 5 -10 10 -7 10 6 31 11 87 20 44 6 57 10 72 19 9 6
12 5 8 -1 -4 -6 5 -10 22 -9 16 1 27 4 25 8 -2 3 10 6 28 6 18 0 35 1 38 2 14
5 62 10 129 13 56 3 88 -2 128 -16 29 -11 53 -24 53 -28 0 -5 9 -9 20 -9 11 0
20 -7 20 -15 0 -8 5 -15 10 -15 11 0 90 -76 90 -87 0 -3 8 -12 18 -20 10 -9
11 -12 2 -7 -12 6 -13 4 -3 -6 7 -8 15 -11 18 -8 9 8 10 172 2 185 -4 6 -1 14
5 16 10 4 10 6 1 6 -7 1 -13 6 -13 12 0 5 6 7 13 3 10 -6 10 -4 0 7 -7 7 -13
21 -13 31 0 10 -6 18 -12 18 -10 0 -9 3 1 9 9 6 10 11 2 15 -6 4 -9 12 -6 17
4 5 0 9 -7 9 -11 0 -10 2 0 9 11 7 10 9 -3 15 -9 3 -13 10 -10 16 3 5 1 10 -4
10 -6 0 -11 9 -11 20 0 11 -5 20 -11 20 -5 0 -7 5 -4 10 3 6 1 10 -6 10 -7 0
-10 3 -6 6 3 3 -5 17 -19 31 -13 13 -22 28 -19 33 3 5 -4 11 -15 15 -11 4 -18
11 -15 16 6 8 -8 13 -27 10 -5 0 -8 6 -8 15 0 8 -4 12 -10 9 -5 -3 -10 -2 -10
3 0 5 -12 14 -26 20 -14 7 -22 17 -19 22 3 6 -1 7 -9 4 -9 -4 -16 -1 -16 6 0
7 -7 10 -15 6 -8 -3 -15 -1 -15 4 0 6 -6 10 -14 10 -23 0 -66 26 -58 36 4 4 0
3 -10 -4 -11 -9 -18 -10 -23 -2 -4 6 -16 10 -28 8 -15 -2 -21 2 -19 11 3 12 0
12 -12 1 -9 -7 -16 -8 -16 -3 0 5 -27 9 -59 8 -33 0 -57 3 -54 8 2 4 -3 7 -12
7 -10 0 -13 -5 -9 -12 6 -10 4 -10 -7 -2 -8 6 -22 10 -31 9 -10 -2 -18 0 -18
4 0 5 -11 6 -25 3 -14 -2 -22 -9 -19 -16 3 -6 -1 -3 -9 6 -13 16 -15 16 -32 0
-11 -10 -15 -12 -10 -3 6 10 4 13 -7 8 -9 -3 -20 -1 -26 5 -8 8 -13 7 -18 -6z
m-589 -2294 c-2 -3 0 -11 6 -18 7 -8 6 -14 -2 -20 -8 -5 -9 -3 -4 6 6 9 4 11
-4 6 -9 -6 -9 -12 3 -25 12 -13 13 -20 4 -29 -9 -9 -9 -12 3 -12 11 0 11 -2 1
-9 -8 -4 -14 -12 -14 -16 0 -4 6 -12 14 -16 11 -7 11 -9 -1 -9 -7 0 -11 -6 -7
-15 3 -8 1 -15 -5 -15 -6 0 -7 -5 -3 -11 5 -8 -1 -10 -20 -7 -15 3 -26 1 -27
-6 0 -6 -2 -7 -5 -1 -4 10 -81 11 -91 1 -3 -3 -12 -1 -20 5 -10 9 -13 8 -13
-1 0 -9 -4 -9 -13 -2 -7 6 -18 7 -26 3 -7 -5 -22 -6 -33 -3 -17 4 -10 13 42
64 59 56 138 114 151 111 3 -1 11 6 19 16 7 11 20 16 32 13 10 -2 16 -7 13
-10z m-345 -352 c0 9 4 9 17 -1 11 -10 14 -10 9 -1 -4 6 -2 12 3 12 6 0 11 -6
12 -12 0 -10 2 -10 6 0 4 10 8 10 19 1 11 -9 14 -9 14 0 0 7 5 9 12 4 16 -9
47 -10 74 -1 13 4 30 0 44 -9 13 -9 21 -12 17 -6 -9 14 93 10 118 -5 11 -6 15
-12 10 -12 -6 0 -11 -9 -12 -20 -1 -13 2 -18 10 -13 9 5 9 3 0 -8 -10 -12 -10
-18 -1 -27 9 -9 9 -12 0 -12 -12 0 -12 -26 1 -47 4 -6 3 -15 -3 -18 -8 -5 -8
-11 0 -20 8 -10 8 -15 0 -20 -8 -5 -7 -11 2 -23 10 -12 10 -14 1 -8 -16 9 -17
-6 -1 -22 7 -7 8 -12 2 -12 -5 0 -10 -9 -11 -20 -1 -12 3 -18 9 -14 6 4 6 -1
-1 -14 -14 -27 -14 -35 1 -26 7 4 8 3 4 -4 -13 -21 -15 -54 -6 -73 7 -12 6
-20 -1 -25 -8 -4 -8 -9 0 -17 7 -7 7 -15 -2 -25 -9 -12 -9 -16 1 -19 6 -3 9
-10 5 -16 -12 -19 -12 -39 -1 -60 7 -13 7 -17 0 -13 -6 4 -10 -2 -9 -14 1 -11
6 -20 11 -20 5 0 1 -7 -10 -16 -10 -8 -13 -12 -5 -8 11 5 12 1 7 -20 -4 -18
-2 -26 6 -26 9 0 9 -3 2 -8 -6 -4 -11 -54 -12 -122 -2 -77 -6 -117 -15 -122
-9 -6 -9 -8 0 -8 7 0 10 -9 7 -22 -3 -13 -7 -32 -9 -43 -2 -11 -4 -22 -5 -25
-1 -3 -2 -8 -2 -11 1 -9 -62 -38 -98 -45 -8 -2 -37 -4 -65 -5 -27 -1 -56 -7
-64 -13 -12 -9 -13 -8 -6 4 8 13 7 13 -8 1 -9 -7 -17 -9 -17 -4 0 5 -7 10 -15
10 -8 0 -15 -4 -15 -9 0 -4 -5 -7 -11 -5 -6 1 -14 -4 -16 -10 -3 -7 1 -13 9
-13 10 0 9 -3 -2 -10 -12 -8 -12 -10 -1 -10 11 0 11 -3 1 -15 -9 -10 -9 -15
-1 -15 6 0 10 -5 8 -12 -1 -9 30 -11 116 -11 65 1 121 3 123 6 3 3 18 1 34 -3
16 -4 31 -6 34 -3 9 9 107 6 115 -3 3 -5 4 -8 2 -7 -2 2 -11 -3 -19 -10 -13
-10 -15 -9 -8 3 4 9 2 8 -7 -2 -8 -10 -17 -15 -20 -11 -4 3 -7 1 -7 -5 0 -7
-9 -12 -21 -12 -11 0 -18 -4 -14 -9 3 -6 -4 -8 -15 -6 -11 2 -20 -1 -20 -7 0
-6 -3 -8 -7 -5 -3 4 -15 0 -25 -10 -10 -9 -18 -13 -18 -9 0 4 -14 -3 -32 -15
-17 -13 -28 -18 -24 -11 4 7 -9 3 -28 -9 -19 -11 -41 -17 -47 -13 -8 4 -9 3
-5 -4 7 -11 2 -13 -32 -16 -7 -1 -16 -6 -20 -11 -4 -6 -16 -12 -27 -13 -11 -2
-22 -8 -23 -13 -2 -5 -9 -6 -15 -2 -7 4 -8 0 -3 -12 5 -15 4 -16 -8 -6 -11 9
-15 9 -19 -1 -4 -8 -6 -7 -6 5 -1 9 -6 17 -12 17 -5 0 -7 5 -4 10 3 6 1 10 -4
10 -6 0 -11 6 -11 14 0 8 -5 16 -10 18 -6 2 -12 13 -14 25 -3 12 -10 32 -18
45 -16 30 -37 86 -44 118 -3 13 -11 31 -17 39 -10 12 -9 13 3 6 12 -7 13 -6 3
7 -7 8 -10 18 -6 21 3 4 2 7 -3 7 -5 0 -10 10 -10 23 -2 27 -8 49 -16 62 -3 6
-6 21 -6 35 0 34 -5 54 -17 62 -6 5 -5 8 3 8 7 0 10 5 6 11 -3 6 -8 25 -9 42
-1 18 -6 41 -10 51 -6 13 -5 17 3 12 7 -4 9 2 4 21 -13 52 -3 267 14 294 4 7
3 9 -4 6 -6 -5 -8 0 -5 13 3 11 10 17 17 13 6 -4 5 0 -2 9 -8 10 -9 19 -3 22
5 4 8 18 5 31 -2 14 0 25 6 25 5 0 10 8 10 18 0 10 6 24 13 31 10 11 9 12 -2
6 -11 -6 -13 -4 -6 11 9 23 35 103 40 124 2 8 4 17 5 20 1 3 2 8 1 13 0 4 3 7
8 7 5 0 12 14 16 30 4 17 10 30 15 30 4 0 11 12 15 27 9 37 44 66 62 52 10 -9
13 -8 13 1z m-325 -1590 c3 -5 1 -10 -4 -10 -6 0 -11 5 -11 10 0 6 2 10 4 10
3 0 8 -4 11 -10z m482 -76 c-3 -3 -12 -4 -19 -1 -8 3 -5 6 6 6 11 1 17 -2 13
-5z"/>
<path d="M1374 1968 c-4 -7 -3 -8 4 -4 7 4 12 2 12 -3 0 -6 5 -11 10 -11 15 0
12 17 -5 23 -8 4 -17 1 -21 -5z"/>
</g>
</svg>
